<svg xmlns="http://www.w3.org/2000/svg" width="24" height="24">
<g fill="#bebebe" stroke="#555753">
<path d="M8.0275933 1.5013891c-2.8183472.0466368-5.2878242 1.2552559-6.2839838 4.1947259-.98846785 2.916771 1.1714865 8.182008 5.9325763 5.840503 7.9077412-3.889027 7.9038032.963382 9.8807382.963382 2.438571 0 4.94037-1.699566 4.94037-3.873599 0-1.944514.09638-3.806388-.992208-4.87712-1.976935-1.944514-2.973677.987396-8.289071-1.184158-1.694017-.6920746-3.4974127-1.0917169-5.1884217-1.0637339z"/>
</g>
<g fill="#c6f8c6" stroke="#619361">
<path d="M0.5 16.5h4v-4h2v4h4v2h-4v4h-2v-4h-4z"
 transform="rotate(45, 5.5, 17.5)"/>
</g>
<g fill="#c3e1f5" stroke="#3f5e71">
<path d="M12.5 14.5h10v2h-10z"/>
<path d="M12.5 18.5h10v2h-10z"/>
</g>
</svg>
